<?xml version="1.0" encoding="UTF-8" standalone="no"?>
<!-- Created with Inkscape (http://www.inkscape.org/) -->

<svg
   width="420.0mm"
   height="297.0mm"
   viewBox="0 0 420.0 297.0"
   version="1.1"
   id="SVGRoot"
   sodipodi:docname="logo1.svg"
   inkscape:version="1.2.1 (9c6d41e410, 2022-07-14)"
   xmlns:inkscape="http://www.inkscape.org/namespaces/inkscape"
   xmlns:sodipodi="http://sodipodi.sourceforge.net/DTD/sodipodi-0.dtd"
   xmlns="http://www.w3.org/2000/svg"
   xmlns:svg="http://www.w3.org/2000/svg">
  <sodipodi:namedview
     id="namedview14860"
     pagecolor="#ffffff"
     bordercolor="#000000"
     borderopacity="0.25"
     inkscape:showpageshadow="2"
     inkscape:pageopacity="0.0"
     inkscape:pagecheckerboard="0"
     inkscape:deskcolor="#d1d1d1"
     inkscape:document-units="mm"
     showgrid="false"
     inkscape:zoom="0.69130191"
     inkscape:cx="610.44241"
     inkscape:cy="561.25984"
     inkscape:window-width="1920"
     inkscape:window-height="974"
     inkscape:window-x="-11"
     inkscape:window-y="-11"
     inkscape:window-maximized="1"
     inkscape:current-layer="layer1" />
  <defs
     id="defs14855">
    <rect
       x="260.37827"
       y="506.29111"
       width="326.9194"
       height="104.15131"
       id="rect2319" />
    <inkscape:path-effect
       effect="spiro"
       id="path-effect1783"
       is_visible="true"
       lpeversion="1" />
    <inkscape:path-effect
       effect="spiro"
       id="path-effect1779"
       is_visible="true"
       lpeversion="1" />
  </defs>
  <g
     inkscape:label="Layer 1"
     inkscape:groupmode="layer"
     id="layer1">
    <path
       style="fill:#1cbc08;fill-opacity:0.768212;stroke-width:0.938884"
       d="M 78.081564,222.29796 C 50.497058,196.30579 30.321969,162.5353 20.507761,125.92684 c -0.934278,-3.485 -1.77706,-6.99593 -2.449942,-10.54069 -2.598117,-13.68692 -2.615083,-27.964446 0.914444,-41.44126 3.529528,-13.476815 10.706075,-26.117789 21.135113,-35.354524 10.99004,-9.733601 25.48343,-15.4451 40.161095,-15.745273 14.677666,-0.300172 29.418509,4.829898 40.687169,14.239532 10.95302,9.146068 18.46165,22.064995 22.14149,35.851876 3.67984,13.786881 3.66182,28.405979 1.13304,42.449649 -3.36579,18.69203 -11.08187,36.39968 -20.82458,52.70306 -12.13249,20.30241 -27.491476,38.67217 -45.324026,54.20875 z"
       id="path1777"
       inkscape:path-effect="#path-effect1779"
       inkscape:original-d="M 78.081564,222.29796 C 58.891185,190.17531 39.699898,158.05154 20.507761,125.92684 1.3156399,93.801943 18.875313,118.90074 18.057819,115.38615 17.240326,111.87166 32.758366,64.190058 40.107376,38.590366 c 7.349008,-25.599573 53.899669,-1.002877 80.848264,-1.505741 26.94862,-0.50308 15.5172,52.202054 23.27453,78.301525 7.75734,26.09952 -13.8822,35.13645 -20.82458,52.70306 -6.94238,17.56657 -30.215188,36.14018 -45.324026,54.20875 z" />
    <path
       style="fill:#262222;fill-opacity:0.890728;stroke-width:1.29274"
       d="m 87.874222,52.70212 c -6.832421,-2.320673 -14.520094,-2.017785 -21.148754,0.833245 -6.62866,2.851029 -12.135928,8.223369 -15.150472,14.779284 -3.014544,6.555916 -3.507994,14.233712 -1.357479,21.121585 2.150514,6.887872 6.924756,12.921006 13.133918,16.597116 5.076572,3.00557 11.069813,4.43827 16.956836,4.0536 5.887024,-0.38468 11.642863,-2.58511 16.28515,-6.22574 4.642289,-3.64064 8.151339,-8.706025 9.928239,-14.331647 1.77691,-5.625622 1.81414,-11.787618 0.10534,-17.434301 C 103.92191,63.15636 96.717291,55.705721 87.874222,52.70212 Z"
       id="path1781"
       inkscape:path-effect="#path-effect1783"
       inkscape:original-d="M 87.874222,52.70212 C 81.622309,46.236017 71.526668,88.257979 63.351435,106.03335 55.176135,123.80889 92.202771,83.409751 106.627,72.095262 121.05125,60.780977 94.126138,59.168176 87.874222,52.70212 Z" />
    <text
       xml:space="preserve"
       transform="matrix(1.1050141,-0.03962768,0.05103502,2.0854293,-147.40535,-990.54538)"
       id="text2317"
       style="font-size:64px;white-space:pre;shape-inside:url(#rect2319);display:inline;fill:#f5f5f5;fill-opacity:1;-inkscape-font-specification:'Georgia, Bold Italic';font-family:Georgia;font-weight:bold;font-style:italic;font-stretch:normal;font-variant:normal;font-variant-ligatures:normal;font-variant-caps:normal;font-variant-numeric:normal;font-variant-east-asian:normal"><tspan
         x="260.37891"
         y="564.03311"
         id="tspan26532">Mapit</tspan></text>
  </g>
</svg>
